<svg width="120" height="162" viewBox="0 0 120 162" fill="none" xmlns="http://www.w3.org/2000/svg">
<path fill-rule="evenodd" clip-rule="evenodd" d="M81.59 64.2469C99.238 75.9282 119.236 90.0492 118.895 111.21C118.884 111.9 118.856 112.593 118.811 113.288C117.037 140.94 89.2218 162.165 56.6835 160.696C24.1452 159.227 -0.794206 135.619 0.979734 107.967C1.37706 101.774 9.30567 100.937 13.7952 105.222C25.0277 115.942 40.296 121.27 53.4083 122.978C56.3488 123.361 58.8776 125.699 61.8348 125.918C71.0829 126.645 76.0457 121.903 77.6063 117.222C77.7116 116.906 78.033 116.713 78.354 116.774C79.7744 117.04 80.8594 117.551 81.5778 118.293C82.3262 119.074 82.7117 120.209 82.7231 121.667C82.7331 122.968 83.7942 124.104 85.191 124.308C86.9454 124.563 88.5614 123.28 88.5391 121.626C88.5208 118.763 87.6124 116.38 85.837 114.541C83.6242 112.272 80.5829 111.478 78.4213 111.211C78.1336 111.176 77.9026 110.98 77.8325 110.712C76.3831 105.155 71.1996 101.664 63.9624 101.373C62.798 101.333 61.4642 102.409 60.2992 102.405C29.5646 102.307 14.2946 84.0429 13.413 82.9884C13.3866 82.9568 13.3593 82.9243 13.3336 82.8922L13.2704 82.8134C12.8729 82.3172 12.4754 81.821 12.0778 81.3249C12.0718 81.3174 12.072 81.3067 12.0782 81.2994C12.0846 81.2918 12.0846 81.2807 12.0781 81.2733C11.8347 80.9936 11.595 80.712 11.3591 80.4284C10.996 79.9756 10.6328 79.523 10.2694 79.0704C-1.53345 63.8168 -2.87685 43.4373 8.8168 26.3096C25.2971 2.17093 61.4312 -6.36819 89.5246 7.23696C105.277 14.8655 115.157 27.8364 117.892 42.0155C120.678 56.4629 103.987 63.3546 90.4037 57.6997C87.9166 56.6643 85.8317 55.1008 86.2647 52.6324L86.3676 52.1153C88.0138 45.7254 84.4987 38.7789 78.7436 35.7206C64.577 28.1925 45.7023 27.0752 39.0398 36.1471C32.3772 45.2189 41.8356 59.1578 56.0021 66.6859C61.6958 69.4089 70.8109 69.275 76.7377 65.3952C76.8041 65.3465 76.8661 65.304 76.9281 65.2614L76.9282 65.2613L76.9284 65.2612L76.9286 65.261L76.9289 65.2608C76.9662 65.2352 77.0035 65.2095 77.0418 65.1826C77.0637 65.1672 77.0858 65.1514 77.1085 65.1349C77.1156 65.1297 77.1218 65.1236 77.1267 65.1168C77.1335 65.1076 77.142 65.0999 77.1524 65.0939C77.9589 64.6224 79.3132 63.8374 80.3063 63.7575C80.7926 63.7184 81.1784 63.9742 81.5552 64.2239L81.59 64.2469ZM82.49 109.149C82.4891 109.073 82.5047 108.998 82.536 108.928C82.5992 108.786 82.7223 108.672 82.8782 108.612C83.0341 108.551 83.21 108.548 83.3673 108.604C84.0286 108.839 84.6701 109.117 85.2868 109.436C85.3595 109.473 85.4233 109.523 85.4744 109.582C85.5255 109.642 85.5629 109.71 85.5846 109.783C85.6062 109.856 85.6117 109.932 85.6006 110.006C85.5895 110.081 85.5621 110.154 85.52 110.219C85.435 110.352 85.2954 110.449 85.1316 110.489C84.9679 110.53 84.7934 110.51 84.6467 110.435C84.0825 110.144 83.4957 109.889 82.8908 109.673C82.8129 109.646 82.7419 109.605 82.6819 109.552C82.622 109.5 82.5741 109.437 82.5412 109.368C82.5082 109.299 82.4908 109.224 82.49 109.149ZM91.2599 120.014C90.8958 116.746 89.4091 114.082 87.335 112.273C87.2739 112.221 87.2251 112.158 87.1913 112.089C87.1574 112.019 87.1393 111.944 87.138 111.868C87.1366 111.792 87.152 111.717 87.1833 111.646C87.2146 111.575 87.2611 111.51 87.3203 111.456C87.3794 111.401 87.4499 111.357 87.5277 111.327C87.6055 111.297 87.6891 111.281 87.7736 111.28C87.8581 111.279 87.9419 111.293 88.0201 111.321C88.0982 111.35 88.1693 111.392 88.229 111.445C90.5166 113.443 92.1367 116.344 92.5318 119.891C92.5406 119.966 92.5328 120.042 92.5088 120.115C92.4848 120.188 92.4451 120.256 92.392 120.315C92.3389 120.374 92.2733 120.423 92.1992 120.46C92.125 120.496 92.0437 120.519 91.96 120.527C91.8762 120.535 91.7915 120.528 91.7109 120.507C91.6303 120.486 91.5554 120.45 91.4903 120.402C91.4253 120.355 91.3714 120.296 91.3319 120.229C91.2923 120.163 91.2679 120.09 91.2599 120.014Z" fill="white"/>
</svg>
